<?xml version="1.0" encoding="utf-8"?>
<!-- Svg Vector Icons : http://www.onlinewebfonts.com/icon -->
<!DOCTYPE svg PUBLIC "-//W3C//DTD SVG 1.1//EN" "http://www.w3.org/Graphics/SVG/1.1/DTD/svg11.dtd">
<svg version="1.1" xmlns="http://www.w3.org/2000/svg" xmlns:xlink="http://www.w3.org/1999/xlink" x="0px" y="0px" viewBox="0 0 1000 1000" enable-background="new 0 0 1000 1000" xml:space="preserve">
<metadata> Svg Vector Icons : http://www.onlinewebfonts.com/icon </metadata>
<g><g transform="translate(0.000000,511.000000) scale(0.100000,-0.100000)"><path d="M3582.9,3406.4c-148.6-45.5-198.9-86.3-476.8-392.9c-381-419.3-345-402.5-1358.5-606.2C827.4,2222.7,702.8,2182,499.2,2002.3c-141.4-122.2-263.6-309.1-335.4-505.6l-55.1-153.3l-7.2-1698.8c-4.8-1133.3,2.4-1756.3,19.2-1868.9c28.8-198.9,148.6-462.4,273.1-603.8c107.8-124.6,309.1-258.8,488.8-328.2l136.6-52.7l3162.8-7.2c2283.4-4.8,3208.3,0,3325.7,21.5c220.4,35.9,462.4,160.5,620.6,318.7c244.4,244.4,330.6,484,330.6,920.1c0,232.4-4.8,270.8-35.9,258.8c-122.2-45.5-491.2-91-742.8-91c-445.7,0-881.7,103-1267.5,297.1c-76.7,38.3-141.4,67.1-143.8,62.3c-4.8-4.8-47.9-71.9-98.2-148.6c-438.5-666.1-1253.1-1054.3-2051-970.4c-309.1,31.1-476.8,79.1-754.7,213.3c-663.7,321.1-1116.6,924.9-1234,1638.9c-40.7,254-16.8,718.8,47.9,944c222.8,766.7,819.4,1358.6,1581.4,1564.6c263.6,71.9,697.2,86.3,960.8,33.5c304.3-59.9,285.1-67.1,345,95.8c119.8,313.9,256.4,543.9,491.2,833.8l131.8,165.3l-215.6,210.8c-294.7,289.9-287.5,287.5-1133.3,285.1C3880,3437.5,3650,3427.9,3582.9,3406.4z" fill="#0675aa"/><path d="M7392.6,3200.3c-769.1-107.8-1411.3-579.8-1734.7-1274.7c-242-512.7-278-1097.4-105.4-1636.5c105.4-333.1,249.2-563.1,520-848.2c548.7-570.3,1291.4-795.5,2079.7-635c836.2,170.1,1531.1,872.2,1708.4,1722.8c52.7,249.2,52.7,661.3,0,910.5c-143.8,694.8-639.7,1308.2-1284.3,1586.2C8214.4,3181.1,7747.2,3250.6,7392.6,3200.3z M7979.6,1702.8v-395.3l402.5-4.8l400.1-7.2V984V672.5l-335.4-2.4c-184.5-2.4-364.2-4.8-400.1-7.2l-67.1-2.4V265.2v-395.3h-311.5h-311.5v395.3c0,392.9,0,395.3-52.7,397.7c-31.1,2.4-206,4.8-390.5,7.2l-335.4,2.4l-7.2,318.7l-7.2,316.3h397.7h395.3v395.3v395.3h311.5h311.5V1702.8z" fill="#0675aa"/><path d="M4134,1101.4c-469.6-71.9-886.5-373.8-1090.2-781.1c-218-443.3-220.4-876.9-7.2-1310.6c112.6-227.6,378.6-505.5,599-620.6c424.1-225.2,956-225.2,1380.1,0c182.1,95.8,481.6,390.5,575,565.5l69.5,127l-93.5,100.6c-210.8,230-414.5,589.4-534.3,946.4c-62.3,191.7-88.7,333.1-139,735.6l-16.8,141.4l-141.4,43.1C4591.6,1091.8,4265.7,1120.6,4134,1101.4z" fill="#0675aa"/></g></g>
</svg>