<svg id="_1" data-name="1" xmlns="http://www.w3.org/2000/svg" viewBox="0 0 370 100"><defs><style>.cls-1,.cls-2,.cls-3{fill:none;stroke:#0075aa;stroke-miterlimit:22.93;stroke-width:0.24px;}.cls-1,.cls-3,.cls-4,.cls-5,.cls-6{fill-rule:evenodd;}.cls-2,.cls-3{stroke-linecap:square;}.cls-4{fill:#008bd2;}.cls-12,.cls-5{fill:#0075aa;}.cls-6,.cls-7{fill:#009ee3;}.cls-7{font-size:24.48px;}.cls-12,.cls-7{font-family:Roboto-Bold, Roboto;font-weight:700;}.cls-8{letter-spacing:-0.01em;}.cls-9{letter-spacing:0em;}.cls-10{letter-spacing:-0.01em;}.cls-11{letter-spacing:0.01em;}.cls-12{font-size:27.02px;}.cls-13{letter-spacing:-0.02em;}.cls-14{letter-spacing:-0.01em;}.cls-15{letter-spacing:-0.03em;}.cls-16{letter-spacing:-0.01em;}</style></defs><title>я хочу купить лого</title><path class="cls-1" d="M33.92,43.24c5.55.68,13.39-1.83,17.45-5.74,1.92-1.86.84-1.45,4-.87a28.43,28.43,0,0,0,5.45.46C79.79,37,91,19.42,75.19,8.41c-9.45-6.58-27-5.24-33.88,4.36-7.58,10.59,1.93,14.72,1.49,19.31C42.25,38,38.53,40.62,33.92,43.24Z"/><line class="cls-2" x1="51.57" y1="14" x2="51.57" y2="13.29"/><line class="cls-2" x1="51.57" y1="22.49" x2="51.57" y2="15.78"/><path class="cls-3" d="M65,30.65H63.3m-4.88,0H63.3L63,27.46m-6.28,3.19h1.73a15.18,15.18,0,0,1,.19-2.11l.09-1.08m-9.33-2.72a14.31,14.31,0,0,0,0,2.39,1.6,1.6,0,0,0,.1.23c.14.05.23.05.37.1H71.88a1.44,1.44,0,0,0,.43-.14,18.82,18.82,0,0,0,0-2.63m-2.44,0c.11,0,2.11,0,2.44,0,0-1.51.08-13.64,0-14l-.24-.1H49.6a2.29,2.29,0,0,0-.23.1.61.61,0,0,1,0,.18c0,1.53-.1,13.5,0,13.89l18.57,0"/><line class="cls-2" x1="62.23" y1="49.12" x2="62.23" y2="48.6"/><line class="cls-2" x1="62.23" y1="55.47" x2="62.23" y2="50.46"/><path class="cls-3" d="M72.27,61.58H71m-3.65,0H71l-.25-2.39m-4.7,2.39h1.3A10.54,10.54,0,0,1,67.5,60l.07-.81m-7-2a10.43,10.43,0,0,0,0,1.79l.07.17a2.86,2.86,0,0,0,.28.07H77.43c.16,0,.15,0,.31-.1a14,14,0,0,0,0-2m-1.83,0c.08,0,0,.06.14,0a2.13,2.13,0,0,0,.67,0c.15,0,.06,0,.21,0a2.42,2.42,0,0,1,.81,0c0-1.13,0-10.2,0-10.49l-.17-.07H60.76l-.17.07a.74.74,0,0,1,0,.14c0,1.15-.08,10.09,0,10.39H74.3a.39.39,0,0,1,.18,0"/><path class="cls-4" d="M92.15,69.59l.93,2.84.46,1.33.94,2.91a.36.36,0,0,0,.09.13,7,7,0,0,0,.32,1.28,1.81,1.81,0,0,1-2.4,1.9c-1.14-.37-1.26-1.52-1.7-2.65-.07,3.68,0,7.65,0,11.38a8.87,8.87,0,0,1-.28,3.52,4.2,4.2,0,0,1-.53.58,2.19,2.19,0,0,1-1.43.25,1.84,1.84,0,0,1-1.46-1.59c-.12-2.53,0-7,0-9.84V80.56c0-.34.07-.13-.12-.27H85.74c-.16.11-.13-.17-.13.21V91.33a1.91,1.91,0,0,1-.41,1.08c-.3.41-.49.35-.88.62a2.12,2.12,0,0,1-1.5-.17l-.34-.28c-.15-.15-.12-.18-.3-.29a4,4,0,0,1-.28-1.24V69.65l-1.81-.14a26.09,26.09,0,0,0-3-.18c-.15-.12-.61-.22-.82-.38s-.39-.43-.65-.59l-.18-.21c-.32-.33-.93-1.16-1.3-1.3,0-.09,0-.08,0,0a5.75,5.75,0,0,0-1.37-1.42L72.54,65a1.7,1.7,0,0,1-.39-1.08,1.82,1.82,0,0,1,1.93-1.82c1,0,1.69,1,2.15,1.52.29.34.61.63.9.95.84.9.9,1.14,1.52,1.18l.87.06c3.54.26,5.3.25,8.87.28C91.59,66.13,91.57,68.32,92.15,69.59Z"/><path class="cls-4" d="M90.22,59.67a4.93,4.93,0,0,1,.15,1.4,4.07,4.07,0,0,1-6.86,2.65,4.2,4.2,0,0,1-.93-4.35c.9-2.23,2.66-2.25,3.29-2.54h1c.32.16.81.21,1.19.39a4.33,4.33,0,0,1,1,.62A4.24,4.24,0,0,1,90.22,59.67Z"/><line class="cls-2" x1="93.81" y1="39.66" x2="93.81" y2="39.2"/><line class="cls-2" x1="93.81" y1="45.25" x2="93.81" y2="40.83"/><path class="cls-3" d="M102.65,50.63h-1.11m-3.22,0h3.22l-.22-2.1m-4.14,2.1h1.14a9.21,9.21,0,0,1,.13-1.39l.06-.71m-6.15-1.8a10.19,10.19,0,0,0,0,1.58.67.67,0,0,0,.06.15,2.33,2.33,0,0,0,.25.07h14.55c.15-.05.14,0,.28-.1a12.17,12.17,0,0,0,0-1.73m-1.61,0c.08,0,0,0,.13,0a1.9,1.9,0,0,0,.59,0c.13,0,0,0,.18,0a2.39,2.39,0,0,1,.71,0c0-1,0-9,0-9.23l-.15-.07H92.52l-.16.07a.7.7,0,0,1,0,.12c0,1-.07,8.89,0,9.14h12.08a.41.41,0,0,1,.16,0"/><path class="cls-5" d="M120.16,57.68l.82,2.5.4,1.18.83,2.56a.31.31,0,0,0,.08.12,6.12,6.12,0,0,0,.28,1.12,1.59,1.59,0,0,1-2.11,1.67c-1-.32-1.11-1.33-1.5-2.33-.06,3.24,0,6.74,0,10a7.71,7.71,0,0,1-.24,3.1,3.79,3.79,0,0,1-.47.51,1.89,1.89,0,0,1-1.26.23A1.65,1.65,0,0,1,115.7,77c-.1-2.24,0-6.12,0-8.68v-.93c0-.3.06-.12-.11-.24h-1.07c-.15.1-.12-.15-.12.19v9.54a1.8,1.8,0,0,1-.37,1c-.26.35-.43.3-.77.54a1.89,1.89,0,0,1-1.32-.15,3,3,0,0,1-.3-.25c-.13-.13-.11-.16-.27-.26a3.37,3.37,0,0,1-.24-1.09V57.73l-1.59-.12a22.05,22.05,0,0,0-2.62-.15c-.13-.11-.53-.2-.72-.34s-.35-.38-.57-.52l-.16-.18c-.28-.29-.82-1-1.14-1.15,0-.08,0-.07,0,0A5.14,5.14,0,0,0,103.07,54l-.18-.32a1.45,1.45,0,0,1-.34-.95,1.61,1.61,0,0,1,1.7-1.61c.91,0,1.48.9,1.89,1.35.26.29.53.55.79.83.74.79.8,1,1.34,1l.76.06c3.12.22,4.67.21,7.82.24C119.66,54.64,119.65,56.56,120.16,57.68Z"/><path class="cls-5" d="M118.46,49a4.11,4.11,0,0,1,.13,1.23,3.58,3.58,0,0,1-6,2.33,3.55,3.55,0,0,1,2.08-6.06h.89c.29.14.71.18,1,.34a3.86,3.86,0,0,1,.83.55A3.61,3.61,0,0,1,118.46,49Z"/><line class="cls-2" x1="129.66" y1="51.62" x2="129.66" y2="51.16"/><line class="cls-2" x1="129.66" y1="57.22" x2="129.66" y2="52.8"/><path class="cls-3" d="M138.49,62.59h-1.11m-3.21,0h3.21l-.22-2.1M133,62.59h1.15a11,11,0,0,1,.12-1.39l.06-.71M128.2,58.7a10.16,10.16,0,0,0,0,1.58l.07.15.24.06H143c.14-.05.13,0,.27-.09a12.2,12.2,0,0,0,0-1.73m-1.6,0c.07,0,0,0,.12,0a2.29,2.29,0,0,0,.59,0c.13,0,.05,0,.18,0a2.1,2.1,0,0,1,.71,0c0-1,0-9,0-9.24l-.15-.06h-14.8l-.16.06a.27.27,0,0,1,0,.12c0,1-.07,8.89,0,9.15h12.09a.37.37,0,0,1,.15,0"/><path class="cls-4" d="M156,69.65l.83,2.5.39,1.18.83,2.55c.06.1,0,.06.09.12a5.88,5.88,0,0,0,.27,1.12,1.59,1.59,0,0,1-2.11,1.68c-1-.33-1.11-1.34-1.49-2.34-.07,3.24,0,6.74,0,10a7.74,7.74,0,0,1-.24,3.1,3.79,3.79,0,0,1-.47.51,1.94,1.94,0,0,1-1.26.22,1.61,1.61,0,0,1-1.28-1.4c-.1-2.23,0-6.12,0-8.67v-.94c0-.3.06-.11-.11-.24h-1.07c-.15.1-.12-.15-.12.19V88.8a1.76,1.76,0,0,1-.36,1c-.27.36-.44.3-.78.54a1.79,1.79,0,0,1-1.32-.15,2,2,0,0,1-.3-.24c-.13-.13-.1-.16-.27-.26a3.43,3.43,0,0,1-.24-1.09V69.7l-1.59-.12a21.86,21.86,0,0,0-2.61-.16c-.13-.11-.54-.2-.73-.34s-.34-.38-.57-.51l-.16-.19-2.58-2.76a1.51,1.51,0,0,1-.34-1,1.6,1.6,0,0,1,1.7-1.61c.91,0,1.49.9,1.89,1.34s.54.56.8.84c.74.79.79,1,1.34,1l.76,0c3.12.23,4.67.22,7.81.25C155.51,66.6,155.49,68.53,156,69.65Z"/><path class="cls-4" d="M154.3,60.91a4.58,4.58,0,0,1,.14,1.24,3.59,3.59,0,0,1-6.05,2.33,3.56,3.56,0,0,1,2.08-6.06h.89c.29.14.71.17,1,.33a3.63,3.63,0,0,1,.83.55A3.58,3.58,0,0,1,154.3,60.91Z"/><path class="cls-6" d="M35,94.55l-.39.2c.17.21.18.1.18.48-.44,0,0,.17-.63-.47-.92-1,1.06-1.84.84-.21Zm1.47-1.2c-.36.05-.58.11-.75-.15s-.37-1.35,1-.67c.07.69-.09.6-.2.82Zm.51-1.19c-.19-.8,0-.49.21-1,1.15,0,.75.86.64,1-.36.25-.49.14-.85,0ZM27.82,77a31.18,31.18,0,0,1,4.43,0,.84.84,0,0,1,.5.67.82.82,0,0,1-.36.79c-2.79,2.68-1.91,2.85-4.85-.07A.81.81,0,0,1,27.82,77ZM18.94,58.5a3.81,3.81,0,0,0,.94.43A4.92,4.92,0,0,0,23,58.22c2.69-1.41,4.17-3.25,6.37-4.32a7.92,7.92,0,0,1,6.55-.19c.52.25.44.17.73.65A8.64,8.64,0,0,0,40,57.65c.88.43,1,0,1.19,1.49a11.07,11.07,0,0,1-.69,4.67c-.7,1.74-.74.19-1.49.59-.31.18-.43,1.2-.62,1.85S38,67.51,37.8,68.1a16.34,16.34,0,0,1-1.66,3.26c-.36.53-.67,1-1,1.41a8.61,8.61,0,0,1-1.41,1,6.55,6.55,0,0,1-7.44-.09,5.41,5.41,0,0,1-2.38-2.54,23.74,23.74,0,0,1-2.29-5.07c-.18-.57-.25-1.45-.69-1.73-.59-.06-.36.22-.86.27-.9-.49-1.65-5-1.09-6.16ZM12.53,81.68l0,.44c.2,0,.16-.15.4-.27.09.42-.17.61-.55.62l-.21-.06c-.05.71,0,.31-.29.74-.61,0-.91-.07-.82-.69a15.22,15.22,0,0,0-3,2,10,10,0,0,0-3.39,6.74c-.2,1.93,1.47,1.83,3,2,1.9.26,17.3,2.54,17.75,2.39s1-2.94,1.18-3.45c.33-1.19.65-2.38,1-3.55l1.49-5.45c.16-.57.17-1.37.8-1.44.88-.11.83.59,1,1.28s.31,1.25.47,1.85l1.88,7.3c.1.39.75,3.27,1.11,3.45s16.34-2.16,18.08-2.4,3.2-.1,3-2.17a9.78,9.78,0,0,0-3.54-6.73,13.13,13.13,0,0,0-3.11-2c-.14.27-.21,1.11-1,.72a.55.55,0,0,1-.23-.68c.16-.54.47-.1.36-.52-.17-.2-5.87-3-6.7-3.44-.58-.3-1.09-.59-1.65-1a10.79,10.79,0,0,1-3.62-4,19.55,19.55,0,0,0,2.19-3.39,40.07,40.07,0,0,0,1.51-4.07c.71,0,.73,0,1.12-.45A7.9,7.9,0,0,0,42.1,62.2,9.6,9.6,0,0,0,42,57.87c-.26-.72-.52-.71-.61-.93s-.15-2.58-.19-3c-.15-1.42-.55-3.8-1.56-4.79-.77-.76-1.2-.7-2.31-.38a6.27,6.27,0,0,1-.53-.83c-2.69-4.62-7-3.31-10.81-4.07a13.43,13.43,0,0,1-3.92-1.44A42.36,42.36,0,0,0,19.68,49a19.56,19.56,0,0,0-.9,7.87c-2.07,1-.85,7.19.51,8.75.38.43.52.29,1.13.43a19.54,19.54,0,0,0,2.36,5.62l1.08,1.52a11.34,11.34,0,0,1-1.95,3,10.43,10.43,0,0,1-2.84,2.06c-1.07.6-2.2,1.14-3.3,1.69l-3.24,1.65ZM11,82.46a8.09,8.09,0,0,1,1.49-.78l0,.44c.2,0,.16-.15.4-.27.09.42-.17.61-.55.62l-.21-.06c-.05.71,0,.31-.29.74-.61,0-.91-.07-.82-.69ZM35,94.55c.22-1.63-1.76-.8-.84.21.59.64.19.42.63.47,0-.38,0-.27-.18-.48l.39-.2ZM48.71,82.37c-.14.27-.21,1.11-1,.72a.55.55,0,0,1-.23-.68c.16-.54.47-.1.36-.52a3.06,3.06,0,0,1,.49.22.74.74,0,0,1,.34.26ZM36.94,92.16c.36.14.49.25.85,0,.11-.11.51-1-.64-1-.21.48-.4.17-.21,1Zm-.51,1.19c.11-.22.27-.13.2-.82-1.32-.68-1.07.49-1,.67S36.07,93.4,36.43,93.35Z"/><text class="cls-7" transform="translate(177.96 51.18)">Я <tspan class="cls-8" x="20.7" y="0">Х</tspan><tspan class="cls-9" x="35.95" y="0">ОЧУ КУП</tspan><tspan class="cls-10" x="140.01" y="0">И</tspan><tspan class="cls-11" x="156.81" y="0">Т</tspan><tspan class="cls-9" x="172.13" y="0">Ь</tspan></text><text class="cls-12" transform="translate(175.46 84.42)">I <tspan class="cls-13" x="14.6" y="0">W</tspan><tspan x="37.66" y="0">A</tspan><tspan class="cls-14" x="55.84" y="0">N</tspan><tspan class="cls-15" x="74.53" y="0">T </tspan><tspan class="cls-16" x="96.39" y="0">T</tspan><tspan x="112.73" y="0">O BUY</tspan></text></svg>